<?xml version="1.0" encoding="utf-8"?>
<!-- Generator: Adobe Illustrator 27.3.1, SVG Export Plug-In . SVG Version: 6.00 Build 0)  -->
<svg version="1.1" id="Layer_1" xmlns="http://www.w3.org/2000/svg" xmlns:xlink="http://www.w3.org/1999/xlink" x="0px" y="0px"
	 viewBox="0 0 257.9 271.02" style="enable-background:new 0 0 257.9 271.02;" xml:space="preserve">
<style type="text/css">
	.st0{fill:none;stroke:#FFFFFF;stroke-width:3;stroke-linecap:round;stroke-linejoin:round;stroke-miterlimit:10;}
	.st1{fill:#FFFFFF;}
</style>
<g>
	<g id="Black_and_white_00000085249930387922274770000000540225331750996649_">
		<g>
			<path class="st0" d="M66.41,181.64c-11.08-13.21-17.76-30.25-17.76-48.85c0-10.72,2.22-20.92,6.22-30.17"/>
			<path class="st0" d="M194.44,102.44c4.05,9.3,6.3,19.56,6.3,30.35c0,18.18-6.38,34.87-17.03,47.96"/>
			<g>
				<g>
					<g>
						<path class="st1" d="M61.53,70.66c-0.8-0.4-1.67-0.75-2.22-0.85c-0.82-0.17-1.14-0.09-2.13,1l-1.79,1.99l9.68,8.73
							c1.55,1.4,1.91,1.44,3.73-0.34l0.56,0.5l-5.22,5.78l-0.56-0.5c1.55-1.96,1.49-2.29-0.08-3.71l-9.68-8.73l-1.63,1.81
							c-0.99,1.09-1.15,1.52-0.86,2.4c0.18,0.6,0.52,1.19,1.02,2.11l-0.54,0.6c-1.1-1.21-2.25-2.46-3.31-3.53l0.41-0.46
							c0.75,0.13,0.92-0.1,1.43-0.66l7.1-7.87c0.5-0.56,0.57-0.79,0.46-1.43l0.43-0.48c0.94,0.84,2.44,2.05,3.68,2.99L61.53,70.66z"
							/>
						<path class="st1" d="M81.73,71.88c-0.32,0.24-0.92,0.42-1.31,0.34c-0.49-0.07-0.84-0.28-1.23-0.59
							c-0.43,1.22-0.9,2.79-1.56,3.29c-1.53,1.13-3.57,0.67-4.59-0.71c-0.78-1.05-0.71-2.17,0.17-3.46
							c0.98-1.42,2.18-3.18,2.37-3.91l-0.32-0.43c-1.13-1.53-2.56-1.84-3.68-1.01c-0.5,0.37-0.62,0.83-0.65,1.24
							c-0.01,0.48,0.19,1.06,0.45,1.83c0.15,0.42,0.06,0.72-0.26,0.96c-0.41,0.3-1.27,0.27-1.65-0.25c-0.22-0.3-0.13-0.77,0.07-1.39
							c0.29-0.91,0.95-2.63,1.99-3.8c0.65-0.48,1.46-0.78,2.24-0.76c1.23,0.09,2.12,0.57,2.94,1.69l3.07,4.15
							c0.73,0.99,1.32,1.02,1.71,0.73c0.26-0.19,0.46-0.5,0.6-0.81l0.66,0.44L81.73,71.88z M76.13,67.6c-0.3,0.59-1,1.8-1.33,2.38
							c-0.55,0.97-0.74,1.75-0.15,2.54c0.84,1.14,2.09,1.02,2.78,0.51c0.56-0.41,1.08-1.33,1.19-2.08
							C77.86,69.94,76.87,68.61,76.13,67.6z"/>
						<path class="st1" d="M92.74,65.43l-0.32-0.68c1.33-0.81,1.4-1.05,0.62-2.69l-1.89-3.99c-0.8-1.69-1.95-2.54-3.54-1.79
							c-0.99,0.47-1.66,1.5-2.09,2.53l2.69,5.66c0.79,1.67,0.96,1.65,2.46,1.12l0.32,0.68l-5.23,2.48l-0.32-0.68
							c1.52-0.93,1.62-1.09,0.86-2.69l-2.36-4.98c-0.75-1.57-0.95-1.56-2.36-1.16l-0.3-0.63c1.09-0.76,2.13-1.63,2.93-2.57
							c0.26,0.56,0.63,1.33,0.91,1.91c0.32-0.57,0.68-1.18,1.12-1.89c0.47-0.76,0.96-1.35,1.66-1.68c1.94-0.92,3.82-0.06,4.94,2.28
							l2.18,4.6c0.78,1.64,0.96,1.65,2.43,1.13l0.32,0.68L92.74,65.43z"/>
						<path class="st1" d="M106.13,60.72c-0.37,0.35-0.76,0.57-1.02,0.64c-1.65,0.46-2.81-0.31-3.37-2.38l-2.07-7.51l-1.78,0.49
							l-0.19-0.28l0.49-0.94l1.19-0.33l-0.6-2.17c0.35-0.65,0.91-1.53,1.26-2.18l0.4-0.06c0.25,1.1,0.63,2.6,0.97,3.84l2.94-0.81
							c0.3,0.19,0.38,0.78,0.14,1.1l-2.79,0.77l1.82,6.61c0.58,2.09,1.51,2.25,2.18,2.06c0.62-0.17,1.15-0.57,1.46-0.85l0.42,0.61
							L106.13,60.72z"/>
						<path class="st1" d="M119.41,58.95c-0.4,0.04-1.01-0.1-1.31-0.36c-0.39-0.31-0.59-0.66-0.77-1.12c-0.98,0.84-2.17,1.97-3,2.06
							c-1.89,0.21-3.42-1.2-3.62-2.9c-0.15-1.3,0.47-2.24,1.88-2.91c1.56-0.74,3.48-1.66,4.01-2.2l-0.06-0.53
							c-0.21-1.89-1.29-2.87-2.68-2.71c-0.61,0.07-0.95,0.4-1.18,0.75c-0.25,0.41-0.37,1.01-0.52,1.81c-0.08,0.44-0.3,0.65-0.7,0.7
							c-0.51,0.06-1.23-0.4-1.3-1.04c-0.04-0.37,0.27-0.73,0.76-1.16c0.71-0.65,2.14-1.81,3.62-2.3c0.8-0.09,1.65,0.06,2.32,0.47
							c1.02,0.69,1.55,1.55,1.71,2.93l0.58,5.13c0.14,1.22,0.63,1.54,1.11,1.49c0.32-0.04,0.65-0.21,0.92-0.4l0.35,0.71
							L119.41,58.95z M116.71,52.44c-0.55,0.36-1.77,1.06-2.35,1.4c-0.96,0.57-1.51,1.14-1.4,2.13c0.16,1.41,1.3,1.93,2.15,1.83
							c0.69-0.08,1.6-0.61,2.07-1.2C117.04,55.34,116.85,53.69,116.71,52.44z"/>
						<path class="st1" d="M124.29,58.47l0.03-0.75c1.72-0.1,1.94-0.23,2-1.99l0.45-12.81c0.06-1.63-0.07-1.8-1.77-2.07l0.02-0.7
							c1.45-0.11,3.12-0.48,3.99-0.77c-0.04,1.26-0.09,2.54-0.13,3.8l-0.45,12.63c-0.06,1.77,0.09,1.9,1.83,2.13l-0.03,0.75
							L124.29,58.47z"/>
						<path class="st1" d="M133.69,59.02l0.12-0.74c1.69,0.1,1.9,0,2.18-1.8l0.85-5.45c0.26-1.64,0.19-1.76-1.35-2.27l0.1-0.63
							c1.41-0.02,2.71-0.17,3.92-0.47c-0.17,1.11-0.35,2.22-0.52,3.33l-0.91,5.82c-0.28,1.8-0.12,1.96,1.58,2.39l-0.12,0.74
							L133.69,59.02z M138.72,44.88c-0.74-0.12-1.3-0.88-1.18-1.62c0.13-0.85,0.89-1.35,1.66-1.23c0.74,0.12,1.25,0.82,1.12,1.67
							C140.2,44.44,139.49,45,138.72,44.88z"/>
						<path class="st1" d="M153.56,60.34c-0.64,0.89-1.61,2.19-2.12,2.93l-8.59-2.68l-0.03-0.46c3.23-2.53,6.46-5.25,9.58-7.89
							c-0.13-0.04-2.43-0.76-2.48-0.77c-1.81-0.57-2.21-0.38-3.89,1.51l-0.64-0.45c0.58-0.88,1.41-2.36,1.94-3.43l0.56,0.18
							c0.03,0.43,0.32,0.69,1.26,0.98l6.03,1.88l0.03,0.43c-2.98,2.44-6.31,5.21-9.49,7.95l2.73,0.85c1.94,0.6,2.69,0.28,4.51-1.51
							L153.56,60.34z"/>
						<path class="st1" d="M155.36,64.92l0.32-0.68c1.59,0.58,1.82,0.54,2.6-1.1l2.38-4.98c0.72-1.5,0.69-1.63-0.64-2.56l0.28-0.58
							c1.36,0.38,2.65,0.61,3.89,0.67c-0.48,1.01-0.97,2.03-1.45,3.04l-2.54,5.31c-0.78,1.64-0.67,1.85,0.83,2.74l-0.32,0.68
							L155.36,64.92z M164.23,52.81c-0.68-0.32-0.99-1.22-0.67-1.89c0.37-0.77,1.24-1.04,1.94-0.71c0.68,0.32,0.97,1.15,0.6,1.92
							C165.77,52.81,164.93,53.15,164.23,52.81z"/>
						<path class="st1" d="M169.99,73.27l0.43-0.62c1.37,0.75,1.61,0.69,2.64-0.81l2.52-3.63c1.07-1.54,1.23-2.96-0.22-3.96
							c-0.9-0.63-2.13-0.69-3.24-0.55l-3.57,5.15c-1.05,1.52-0.95,1.65,0.26,2.68l-0.43,0.62l-4.75-3.29l0.43-0.62
							c1.56,0.85,1.75,0.86,2.76-0.6l3.14-4.53c0.99-1.43,0.88-1.6-0.17-2.62l0.4-0.57c1.2,0.57,2.48,1.03,3.69,1.26
							c-0.35,0.51-0.84,1.21-1.2,1.74c0.65,0,1.37,0,2.2,0.02c0.89,0.03,1.65,0.16,2.28,0.61c1.76,1.22,1.96,3.28,0.48,5.42
							l-2.9,4.18c-1.04,1.5-0.95,1.65,0.23,2.67l-0.43,0.62L169.99,73.27z"/>
						<path class="st1" d="M182.47,78.64c-0.81-0.1-1.34,0.09-1.57,0.31c-0.34,0.34-0.4,1.04,0.44,1.9c0.7,0.7,1.5,1.49,2.13,2.11
							c1.2,1.22,2.35,3.18,0.46,5.04c-1.98,1.96-6.16,1.46-8.67-1.08c-2.13-2.15-2.02-4.56-0.93-5.71c0.42-0.41,0.95-0.6,1.56-0.6
							c0.78-0.01,2.14,0.11,2.92,0.21c-0.49-0.87-0.54-1.8-0.38-2.44c0.12-0.45,0.4-0.85,0.59-1.04c0.98,0.46,2.16,0.58,3.05,0.45
							L182.47,78.64z M180.8,82.96c-0.92-0.93-1.45-1.24-2.08-1.3c-0.97-0.1-1.91,0.08-2.47,0.63c-1.05,1.03-0.76,2.89,0.69,4.36
							c1.79,1.81,3.74,1.92,4.96,0.71c0.65-0.64,0.86-1.45,0.56-2.21C182.21,84.47,181.59,83.76,180.8,82.96z M183.18,79.74
							c-1.75-1.77-2.11-4.31-0.32-6.08c2.17-2.15,5.1-1.2,6.57,0.29c0.62,0.63,1.07,1.43,1.33,2.3c0.87,0.88,2.15,1.87,2.81,2.27
							l-0.06,0.28c-0.42,0.19-1.25,0.41-1.71,0.29c-0.28-0.29-0.83-0.99-1.07-1.27c-0.12,0.76-0.5,1.59-1.19,2.26
							C187.47,82.13,184.8,81.38,183.18,79.74z M188.64,74.36c-0.85-0.86-2.38-0.85-3.89,0.64c-1.5,1.49-1.8,3.28-0.77,4.33
							c0.87,0.8,2.3,0.85,3.85-0.68C189.32,77.18,189.69,75.42,188.64,74.36z"/>
					</g>
				</g>
			</g>
			<g>
				<g>
					<g>
						<path class="st1" d="M89.37,196.8c3.37,0,5.5,0.67,6.98,2.08c1.17,1.15,2.03,2.82,2.03,5.12c0,2.8-1.15,5.07-2.99,6.46
							c-1.82,1.36-4.14,1.89-7.08,1.89h-5.59v-0.67c2.06-0.19,2.15-0.36,2.15-2.32v-9.54c0-2.06-0.29-2.15-2.15-2.34v-0.67H89.37z
							 M86.96,209.16c0,1.79,0.77,2.29,2.56,2.29c4.3,0,6.5-2.94,6.5-7.12c0-2.61-0.88-4.59-2.77-5.74
							c-1.1-0.69-2.49-0.96-4.09-0.96c-1.08,0-1.65,0.14-1.89,0.33c-0.22,0.14-0.31,0.41-0.31,1.34V209.16z"/>
						<path class="st1" d="M110.6,210.31c-1.53,1.91-3.2,2.32-3.97,2.32c-2.92,0-4.69-2.39-4.69-5.14c0-1.63,0.57-3.13,1.55-4.18
							c1-1.12,2.32-1.75,3.56-1.75c2.08,0,3.66,1.79,3.66,3.71c-0.02,0.48-0.1,0.69-0.48,0.79c-0.48,0.1-3.54,0.31-6.38,0.41
							c-0.07,3.2,1.89,4.52,3.59,4.52c0.98,0,1.89-0.41,2.77-1.22L110.6,210.31z M106.49,202.46c-1.1,0-2.18,1.03-2.51,2.96
							c1.34,0,2.68,0,4.09-0.07c0.43,0,0.57-0.12,0.57-0.48C108.66,203.61,107.83,202.46,106.49,202.46z"/>
						<path class="st1" d="M119.92,204.69c-0.43-1.39-1.05-2.34-2.51-2.34c-0.84,0-1.48,0.6-1.48,1.55c0,1.03,0.69,1.51,2.03,2.13
							c2.06,0.98,3.08,1.7,3.08,3.28c0,2.2-2.01,3.32-3.9,3.32c-1.24,0-2.34-0.38-2.85-0.67c-0.12-0.69-0.33-2.01-0.43-2.8
							l0.69-0.12c0.43,1.53,1.27,2.77,2.94,2.77c0.91,0,1.67-0.62,1.67-1.63c0-1.08-0.65-1.63-1.91-2.25
							c-1.67-0.81-3.04-1.58-3.04-3.3c0-1.75,1.48-3.08,3.73-3.08c1,0,1.82,0.24,2.3,0.31c0.07,0.57,0.24,2.08,0.36,2.65
							L119.92,204.69z"/>
						<path class="st1" d="M124.1,212.34v-0.67c1.51-0.14,1.67-0.26,1.67-1.89v-4.93c0-1.48-0.07-1.58-1.51-1.82v-0.57
							c1.24-0.21,2.37-0.53,3.4-0.96c0,1,0,2.01,0,3.01v5.26c0,1.63,0.17,1.75,1.72,1.89v0.67H124.1z M126.59,199.16
							c-0.67,0-1.27-0.6-1.27-1.27c0-0.76,0.6-1.31,1.29-1.31c0.67,0,1.22,0.55,1.22,1.31
							C127.83,198.57,127.28,199.16,126.59,199.16z"/>
						<path class="st1" d="M135.5,208.85c-0.57,0.45-0.79,0.91-0.79,1.2c0,0.43,0.41,0.91,1.48,0.91c0.88,0,1.89-0.02,2.68-0.02
							c1.53,0,3.49,0.5,3.49,2.87c0,2.49-2.94,4.83-6.12,4.83c-2.7,0-4.16-1.58-4.21-2.99c0-0.53,0.22-0.98,0.6-1.36
							c0.48-0.5,1.41-1.29,1.96-1.72c-0.86-0.24-1.48-0.79-1.79-1.29c-0.22-0.36-0.29-0.79-0.29-1.03c0.91-0.33,1.72-1,2.2-1.65
							L135.5,208.85z M136.65,209.09c-2.22,0-4.06-1.36-4.06-3.61c0-2.73,2.44-3.99,4.3-3.99c0.79,0,1.58,0.21,2.3,0.6
							c1.1,0,2.53-0.19,3.2-0.36l0.14,0.21c-0.14,0.38-0.53,1.05-0.88,1.27c-0.36,0-1.15-0.1-1.48-0.12
							c0.41,0.55,0.69,1.31,0.69,2.18C140.86,207.87,138.71,209.09,136.65,209.09z M137.2,212.62c-1.17,0-1.7,0.14-2.13,0.5
							c-0.67,0.55-1.15,1.27-1.15,1.96c0,1.31,1.36,2.29,3.2,2.29c2.27,0,3.56-1.17,3.56-2.7c0-0.81-0.38-1.46-1.05-1.75
							C139.04,212.67,138.21,212.62,137.2,212.62z M136.65,202.25c-1.08,0-2.03,0.98-2.03,2.87c0,1.89,0.96,3.2,2.27,3.2
							c1.05-0.05,1.98-0.93,1.98-2.87C138.88,203.59,137.99,202.25,136.65,202.25z"/>
						<path class="st1" d="M151.74,212.34v-0.67c1.39-0.14,1.53-0.31,1.53-1.94v-3.95c0-1.67-0.6-2.8-2.18-2.8
							c-0.98,0-1.91,0.57-2.65,1.24v5.59c0,1.65,0.14,1.7,1.55,1.84v0.67h-5.16v-0.67c1.58-0.17,1.72-0.26,1.72-1.84v-4.93
							c0-1.55-0.17-1.63-1.46-1.84v-0.62c1.17-0.19,2.34-0.5,3.35-0.96c0,0.55,0,1.32,0,1.89c0.48-0.33,1-0.69,1.63-1.1
							c0.67-0.43,1.29-0.72,1.98-0.72c1.91,0,3.11,1.41,3.11,3.73v4.54c0,1.63,0.14,1.7,1.53,1.84v0.67H151.74z"/>
						<path class="st1" d="M165.86,204.69c-0.43-1.39-1.05-2.34-2.51-2.34c-0.84,0-1.48,0.6-1.48,1.55c0,1.03,0.69,1.51,2.03,2.13
							c2.06,0.98,3.08,1.7,3.08,3.28c0,2.2-2.01,3.32-3.9,3.32c-1.24,0-2.34-0.38-2.85-0.67c-0.12-0.69-0.33-2.01-0.43-2.8
							l0.69-0.12c0.43,1.53,1.27,2.77,2.94,2.77c0.91,0,1.67-0.62,1.67-1.63c0-1.08-0.65-1.63-1.91-2.25
							c-1.67-0.81-3.04-1.58-3.04-3.3c0-1.75,1.48-3.08,3.73-3.08c1,0,1.82,0.24,2.3,0.31c0.07,0.57,0.24,2.08,0.36,2.65
							L165.86,204.69z"/>
					</g>
				</g>
			</g>
		</g>
		<g id="Theban_flower_00000067934488784422330280000016307406686816871330_">
			<g id="Flower_theban_00000049936593802096666020000010807409705936315064_">
				<g>
					<path class="st1" d="M122.36,98.49c-11.61-16.7-12.24,3.47-11.87,12.92c0.15,3.71,0.38,7.43,0.76,11.13
						c0,0-0.84,0.12-0.84,0.12c-0.88-4.44-1.64-8.9-2.4-13.36c-0.71-3.71-1.28-9.6-2.47-13.08c-1.35-3.96-3.73-7.73-6.98-10.33
						c-3.52-2.9-6.83-2.15-9.66,1.25c-7.18,7.8-5.04,19.93-0.12,28.54c3.37,5.74,7.74,11,12.57,15.57
						c3.44,3.45,7.57,6.63,11.22,9.85c0,0-2.48-1.05-2.48-1.05c-4.62-1.96-16.42-6.96-20.89-8.84c-2.31-0.96-4.68-1.97-6.95-2.87
						l0.35-0.76c4.94,2.81,9.61,6.02,14.15,9.45c9.19,7.29,22.35,18.42,22.75,31.06c0.06,4.87-3.06,9.57-6.8,12.17
						c-7.36,5.6-17.76,6.61-26,2.43c-6.12-2.82-10.62-10.26-4.87-15.96c3.24-3.43,8.17-5.28,12.77-3.84
						c1.59,0.54,3.37,1.46,3.65,3.41c0.09,3.5-4.19,4.69-6.81,5.59c-0.22,0.07-0.46-0.06-0.53-0.28c-0.06-0.21,0.04-0.43,0.24-0.51
						c1.83-0.8,3.75-1.69,5.01-3.22c1.22-1.59-0.36-2.6-2.11-3.03c-3.73-0.88-7.73,0.95-10.09,3.8c-5.93,7.12,5.67,12.64,11.8,12.71
						c5.18,0.38,10.44-1.13,14.53-4.28c15.12-10.9-6.24-30.14-15.08-38.19c-4.18-3.71-8.58-7.23-13.07-10.6c0,0,0.35-0.76,0.35-0.76
						c2.42,0.96,4.69,1.93,7.03,2.9c4.42,1.85,16.33,6.9,20.9,8.84c0,0-0.41,0.73-0.41,0.73c-3.24-2.26-6.88-4.77-9.87-7.41
						c-0.92-0.8-2.29-1.84-3.13-2.7c-4-3.77-7.75-8.07-10.69-12.77c-5.97-9.59-8.3-23.34,0.24-32.48
						c8.52-9.94,19.06,0.96,21.74,10.73c1.2,3.96,1.32,9.6,1.83,13.66c0.41,4.5,0.83,9.01,1.12,13.53l-0.84,0.12
						c-1.27-7.95-3.67-24.33,1.26-30.94c4.59-4.86,9.8,2.2,11.43,6.36C123.3,98.57,122.64,98.91,122.36,98.49L122.36,98.49z"/>
				</g>
			</g>
			<g id="Flower_theban_00000165214409491850771980000014379015326665677209_">
				<g>
					<path class="st1" d="M125.55,97.87c1.36-3.09,3.21-6.48,6.52-7.86c2.99-1.11,5.53,1.44,6.38,4.04
						c1.88,5.5,1.64,11.35,1.39,17.01c-0.22,3.76-0.64,7.48-1.25,11.19c0,0-0.84-0.11-0.84-0.11c0.23-4.52,0.59-9.03,0.93-13.54
						c0.46-4.06,0.49-9.69,1.63-13.69c1.94-7.52,9.97-18.92,18.79-13.43c5.98,3.92,8.89,11.64,8.61,18.7
						c-0.95,17.1-15.34,30.21-28.46,39.38c0,0-0.42-0.72-0.42-0.72c8.04-3.54,19.75-8.76,27.75-12.15c0,0,0.36,0.75,0.36,0.75
						c-4.44,3.44-8.79,7.02-12.92,10.79c-8.72,8.18-29.8,27.71-14.52,38.4c6.17,4.65,15.09,5.47,22.04,2.07
						c3.15-1.59,6.39-4.25,5.79-7.89c-1.3-4.63-7.06-7.8-11.76-6.65c-1.17,0.27-2.36,0.96-2.49,1.73c-0.09,0.37,0.06,0.86,0.42,1.33
						c1.28,1.5,3.21,2.37,5.05,3.14c0.22,0.08,0.33,0.33,0.24,0.55c-0.08,0.2-0.3,0.3-0.51,0.25c-2.09-0.62-4.31-1.32-5.92-2.96
						c-1.48-1.42-1.18-3.73,0.47-4.88c3.31-2.33,7.81-2.03,11.29-0.23c19.21,11.48-8.52,30.46-26.97,16.75
						c-22.34-16.93,14.84-44.54,29.34-53.11c0,0,0.36,0.75,0.36,0.75c-2.26,0.94-4.61,1.98-6.91,2.98
						c-4.39,1.92-16.22,7.14-20.76,9.14c0,0-2.47,1.09-2.47,1.09l2.05-1.81c2.04-1.81,4.09-3.59,6.15-5.35
						c3.78-3.71,7.78-7.64,10.85-11.94c4.69-6.13,8.51-13.78,8.68-21.51c0.03-4.93-1.39-10.41-4.97-13.81
						c-6.61-8.01-14.4,3.01-16.37,9.45c-1.14,3.47-1.62,9.38-2.28,13.11c-0.7,4.47-1.4,8.94-2.21,13.39c0,0-0.85-0.1-0.84-0.11
						c0.57-7.35,0.98-14.87,0.14-22.19c-1.5-11.28-5.92-10.06-11.6-1.7C126.05,98.71,125.34,98.31,125.55,97.87L125.55,97.87z"/>
				</g>
			</g>
		</g>
	</g>
</g>
</svg>
